<svg xmlns="http://www.w3.org/2000/svg" width="24" height="24" fill="currentColor" viewBox="0 0 10 10"><path d="M2.402 3.205c.13.002.251.094.286.219.011.04.01.088.01.184V5.37c0 .224 0 .425.01.591.011.172.035.355.104.54.127.34.354.63.645.836.124.088.109.307-.038.347-.496.133-.745.199-.96.151a.9.9 0 0 1-.468-.27c-.149-.163-.215-.411-.348-.907l-.44-1.642c-.133-.495-.2-.744-.152-.96a.9.9 0 0 1 .27-.468c.163-.148.412-.215.907-.348a.7.7 0 0 1 .174-.035m5.137-.025.232.06c.496.133.744.2.906.348.136.125.23.289.27.469.048.215-.018.464-.15.96l-.441 1.641c-.133.496-.2.744-.348.907a.9.9 0 0 1-.468.27c-.215.048-.464-.019-.96-.151-.146-.04-.162-.26-.037-.348a1.8 1.8 0 0 0 .642-.836c.069-.184.093-.367.104-.539.01-.166.01-.367.01-.59v-2c0-.128.117-.222.24-.191m-2.54-1.11c.656 0 .985 0 1.217.163a.9.9 0 0 1 .221.22c.163.233.163.561.163 1.217v1.7c0 .656 0 .984-.163 1.216a.9.9 0 0 1-.22.22c-.233.164-.562.164-1.217.164-.656 0-.984 0-1.216-.163a.9.9 0 0 1-.221-.22C3.4 6.353 3.4 6.025 3.4 5.37v-1.7c0-.656 0-.984.163-1.217a.9.9 0 0 1 .22-.22C4.017 2.07 4.345 2.07 5 2.07"/></svg>