<svg xmlns="http://www.w3.org/2000/svg" width="24" height="24" fill="currentColor" viewBox="0 0 10 10"><path d="M7.192 2.95c.598.597.897.897.926 1.264q.008.078 0 .158c-.029.367-.328.667-.926 1.265L5.637 7.192c-.598.598-.898.897-1.265.926a1 1 0 0 1-.158 0c-.368-.029-.667-.328-1.265-.926l-.14-.141c-.599-.598-.898-.897-.927-1.265a1 1 0 0 1 0-.158c.029-.367.328-.667.926-1.265l1.555-1.555c.598-.598.898-.897 1.265-.926q.08-.007.158 0c.367.029.667.328 1.265.926zM4.54 5.106c-.231-.232-.347-.348-.484-.38a.5.5 0 0 0-.233 0c-.137.032-.253.148-.485.38-.231.231-.347.347-.38.484a.5.5 0 0 0 0 .233c.033.138.149.253.38.485l.353.353c.232.231.347.347.485.38a.5.5 0 0 0 .233 0c.137-.033.253-.149.484-.38.232-.232.348-.348.38-.485a.5.5 0 0 0 0-.233c-.032-.137-.148-.253-.38-.484z"/></svg>