<svg xmlns="http://www.w3.org/2000/svg" width="24" height="24" fill="currentColor" viewBox="0 0 10 10"><path d="M4.08 5.104c.131.026.241.136.46.355.22.22.33.33.356.462a.4.4 0 0 1 0 .173c-.027.132-.207.313-.427.532l-.094.094a.23.23 0 0 0-.006.31q.059.065.083.107a.553.553 0 0 1-.33.803c-.074.02-.202.022-.458.023l-.573.003c-.471.003-.708.003-.864-.13a1 1 0 0 1-.063-.062c-.133-.157-.132-.393-.13-.865l.004-.573c0-.256.002-.384.023-.458a.553.553 0 0 1 .802-.33.6.6 0 0 1 .106.083c.087.08.227.077.31-.007l.094-.093c.22-.22.402-.4.534-.427a.5.5 0 0 1 .173 0m2.829-3.07c.472-.002.708-.003.865.13q.034.03.061.062c.134.156.133.393.13.865l-.003.573c-.001.256-.002.384-.023.458a.554.554 0 0 1-.803.33.6.6 0 0 1-.106-.082.23.23 0 0 0-.31.006l-.095.094c-.22.22-.33.328-.461.355a.4.4 0 0 1-.172 0c-.132-.027-.242-.136-.461-.355-.22-.22-.33-.33-.357-.462a.4.4 0 0 1 0-.173c.027-.131.136-.241.356-.46l.093-.094a.23.23 0 0 0 .008-.31.6.6 0 0 1-.084-.107.554.554 0 0 1 .331-.804c.074-.02.202-.021.457-.022z"/></svg>