<svg xmlns="http://www.w3.org/2000/svg" width="24" height="24" fill="currentColor" viewBox="0 0 10 10"><path d="M6.666 2.525a.5.5 0 1 1 .707.707l-.158.158c-.133.133-.112.354.03.478.324.28.54.581.67.803.12.205.12.453 0 .658C7.596 5.873 6.77 6.9 5.079 6.9c-.372 0-.707-.05-1.008-.135a.32.32 0 0 0-.309.078l-.631.632a.501.501 0 0 1-.708-.707l.287-.289c.13-.13.113-.346-.026-.468a3.8 3.8 0 0 1-.556-.61.675.675 0 0 1 0-.802c.406-.558 1.332-1.5 2.95-1.5.267 0 .512.027.737.072a.32.32 0 0 0 .287-.082zm-1.847 3.26c-.152.153-.094.409.122.415a1.3 1.3 0 0 0 1.335-1.335c-.006-.215-.263-.274-.415-.121zM4.976 3.6A1.3 1.3 0 0 0 3.68 4.98c.013.211.265.266.415.115l1.078-1.077c.15-.15.097-.403-.115-.416z"/></svg>