<svg xmlns="http://www.w3.org/2000/svg" width="24" height="24" fill="currentColor" viewBox="0 0 10 10"><path d="M7.63 2.465c.241.099.32.45.477 1.151l.072.317c.139.62.209.93.055 1.119a.5.5 0 0 1-.071.07c-.189.155-.499.085-1.119-.054l-.317-.072c-.701-.157-1.052-.236-1.151-.477a.5.5 0 0 1-.03-.102c-.017-.095.007-.19.072-.299.147-.249.22-.373.197-.487l-.014-.047c-.042-.108-.121-.148-.28-.228a1.83 1.83 0 0 0-2.333.62A1.824 1.824 0 0 0 5.52 6.62c.29-.145.662-.156.892.074s.231.607-.038.788a3.003 3.003 0 0 1-4.163-.828 3 3 0 0 1 4.172-4.153c.201.135.302.203.378.21l.033.001c.077-.001.2-.071.447-.212a.42.42 0 0 1 .39-.035"/></svg>